<?xml version="1.0" encoding="UTF-8"?>
<!-- Created with Inkscape (http://www.inkscape.org/) -->
<svg width="293.16mm" height="236.71mm" version="1.1" viewBox="0 0 293.16 236.71" xmlns="http://www.w3.org/2000/svg">
 <g transform="translate(43.113 -23.815)">
  <path d="m-24.063 27.158 0.26458 0.52917-1.0583 0.52917-1.3229-0.26458 0.26458 0.79375-1.5875 0.26458-3.175 4.4979c-1.5902-0.05093-2.7913 0.42397-2.9104 2.1167h0.26458v-0.52917h0.26458l-1.0583 1.0583 0.52917 0.52917c-1.6808 1.7673-4.7358 6.289-4.7625 8.7312l-2.3812 1.5875v3.9688l-1.5875 0.79375-0.52917 2.3812v0.26458l1.0583 0.26458-1.0583 1.8521 0.52917 1.3229-0.79375-0.26458 0.52917 1.0583 0.79375-0.52917 1.0583 3.7042c0.98412 0.12859 3.7353 3.7216 3.175 4.4979v0.26458l1.3229-0.26458-0.26458 0.79375 0.79375-0.26458-0.26458 0.79375 1.3229-0.26458-1.3229 1.3229 1.8521-0.79375-0.26458 0.79375 4.7625 3.175-0.26458 1.0583 2.3812 1.8521 0.52917 0.52917v0.26458l1.5875 0.52917v0.26458l-1.3229-0.52917 1.3229 0.79375v0.52917l-1.5875-0.26458 3.9688 2.1167-0.26458 0.79375 1.0583-0.26458v0.26458h-0.52917v0.26458c1.6133-0.12197 1.9632 0.62468 1.8521 2.1167l2.9104 0.52917v0.26458l-0.79375 0.26458 1.0583-0.26458v1.0583c1.3306-0.04551 2.0624 0.61965 2.9104 1.5875l0.79375-0.26458-0.52917 0.79375h1.0583v0.26458l-0.52917 0.26458h1.3229l2.6458 2.9104h0.26458l0.26458-0.52917 3.9687 3.9688 2.3812 1.3229-1.5875-0.79375c0.53287 0.8427 1.1554 0.89032 2.1167 0.79375l-0.52917 0.52917v0.26458c1.1311 0 4.4289 1.8643 4.2333 2.6458l0.79375-0.26458 5.8208 6.0854h0.26458l-0.26458-0.79375 2.1167 1.8521 2.1167 1.5875 0.79375-0.52916 3.7042 3.175 5.5562 2.3812v0.26458l-1.0583-0.26458v0.26458l2.3812 0.26458v0.26459l-0.79375 0.52916 1.3229-0.26458-0.52917 0.52917v0.26458l6.8792 3.4396-0.26458 0.79375c1.3944 0.24607 3.2565 1.1263 3.9688 2.3812l5.8208 2.9104v0.26458h-0.79375v0.26459c3.7703-0.0572 7.6996 5.0861 11.377 6.35l-0.26458 0.52916v0.26459l3.9688 2.1167c0.67336-0.11218 3.098 1.0776 2.1167 1.3229v0.26458c1.9079-0.31802 3.0755 1.1684 4.4979 2.1167 0.85434 0.56965 2.3548 0.37068 2.1167 1.3229l0.79375-0.26459 2.1167 2.1167 3.9688 1.3229-0.26458 0.79375h0.26458c0.26829-0.22807 0.76544-0.28178 0.26458 0v0.26458c0.72469-0.0458 3.6843 0.95303 2.3812 1.5875v0.26459c1.1819 0 3.6679 0.40931 3.4396 1.3229l5.5562 2.3812v0.26459l-0.52917 0.52916c3.0927 0.25294 6.7884 2.2643 9.525 3.7042l-0.52917 0.79375 3.175 1.0583-0.52917 0.52917v0.26458l4.2333 1.5875-0.26458 1.0583c1.0239 0.0228 1.7957 0.29395 2.1167 1.3229l1.5875 0.79375c2.0122-0.49741 3.9328-1.4491 5.7452-2.4574 0.88291-0.4908 1.7092-1.7367 2.7665-1.8317 1.7981-0.16192 2.6231 2.0982 2.6009 3.4954h0.26458v-0.52916h0.26458l-0.52916 1.5875 1.0583 1.5875-0.52917 0.79375 0.79375-0.52917c0 2.7435 0.21643 6.6389-1.0964 9.1376-1.4044 2.6728-4.553 2.6024-3.9306 6.4728l-0.52917-0.79375h-0.26458l2.3812 12.435h0.26458v-0.52916h0.26459l0.52916 2.1167-0.52916-0.79375h-0.26459l0.26459 1.3229c0.91096 0.11959 0.66066 0.82418 0.52916 1.5875 0.85911 0 1.0798 2.6252 1.0583 3.4396 0.90514-0.18097 0.54213 0.40005 0 0.26459l1.0583 4.7625h-0.26458l-0.52917-3.7042h-0.26458l0.79375 4.2333 0.79375-0.26458 0.79375 5.5562h0.52916l-0.26458-0.52917h0.26458l1.3229 5.5562c1.4396 1.5301 2.1741 5.3261 2.3812 7.4083 1.3319 0 2.4792 4.5794 2.3812 5.8208h0.26458l0.26459-0.52917-0.26459 1.3229 1.0583-0.26458 0.52916 1.3229 9.7896 3.7042-0.52917 0.52917 0.26458 0.26458 0.26459-0.52917 1.5875 0.52917-0.52917 0.79375 5.8208 1.3229v0.26458l-0.52916 0.52917 1.5875-0.52917-0.52917 0.79375 0.79375-0.52917h0.26458l4.2333 1.5875 6.35 2.9104c0.78052-0.26009 0.95832-0.39344 0.79375 0.26458l5.2917 1.0583v0.52916l-1.5875 0.79375c1.5272-0.36353 2.8149-0.36062 3.9688 0.79375 1.9952-0.3892 5.3536 0.50747 6.8792 1.8521h2.3812v0.26458h-1.3229v0.26458c1.1734 0 3.4756-0.40825 3.175 0.79375 0.91255-0.18256 2.3532 0.34343 3.7042 0.79375 0.63553 0.21193 1.4647-0.16298 2.1167 0 3.8285 0.95727 7.2194 1.7325 11.112 2.3812 1.4081 0.23469 5.8571 0.38391 5.5562 1.5875 4.3892-0.48974 10.276 1.4351 14.529 2.4937 6.5543 1.6314 13.142 2.8324 19.867 3.9714 3.0268 0.51249 6.1833 1.4086 9.2604 1.4724v0.26459h-0.52916v0.26458c4.7942-0.24712 9.3424 1.7828 14.023 0v-0.26458l-0.52916-0.26459v-0.26458c1.5452-1.3843-1.2356-5.2403-1.5875-6.8792l0.79375 0.26459c-0.18257-0.85408-0.55563-0.79905-1.3229-0.52917l-3.9688-8.4667-0.79375 0.26459c-1.4632-3.7759-4.699-6.768-6.9188-10.054-1.3362-1.9783-2.0611-4.777-4.1936-6.0854l0.52917-0.52916-1.5875-2.1167h-1.3229l-1.3229-2.9104h-0.26458l-0.26458 0.52917v-1.5875l-0.26459-0.26458-0.52916 0.52916-2.9104-5.0271c-1.3044-0.023-2.0664-0.89826-2.3812-2.1167-1.651-0.75935-3.5481-2.6879-3.9688-4.4979l-0.79375 0.26458-0.52917-1.3229c-1.6595-0.42465-5.1395-4.2135-5.5562-5.8208l-0.79375 0.26458c-0.47281-2.8713-4.885-3.5772-5.5562-6.35-2.4842-1.0864-5.3361-4.1611-6.8792-6.35l-0.79375 0.26459c-1.5116-3.2412-6.182-6.4527-8.7934-8.9543-4.7061-4.5082-9.2385-9.8068-15.284-12.615-2.577-1.1972-4.9803-1.0986-7.6729-1.5354-7.4483-1.2084-14.888-0.97235-22.49-0.97235v-0.26458h8.2021v-0.26458c-5.397 0-10.552 0.52731-15.875 1.0308-2.1357 0.20188-5.6822-8e-3 -7.4083 1.3504h-0.26459l-1.3229-0.52917v0.26458l1.0583 0.26459v0.26458c-2.3664 0-5.8534 1.2472-7.4083-0.79375l0.52916 0.26458c-1.2832-2.6289-0.28204-4.5238-0.30877-7.4083-0.0283-3.0636-1.7764-7.3329-4.1891-9.2604l0.52916-0.79375-0.79375 0.26459c-0.37412-1.5452-0.15742-2.6181 1.0583-3.7042l0.79375-4.2333 0.79375 0.26459-0.79375-0.52917c-0.50562-1.9058-1.2351-4.1505-3.4396-4.4979l-0.52916-1.3229-2.1167-1.3229 0.52917-0.79375-2.9104-1.0583v-1.3229h-0.26458v0.79375l-6.0098-5.3673-2.7215-2.3056c0-6.3339-5.3782-10.1-8.7312-15.081l-0.52917 0.26459-2.1167-3.175-1.3229-0.26459 0.52917-0.79375-1.0583 0.26459 0.26458-0.79375c-2.2042-0.68713-4.6363-4.3463-6.1764-6.1164-3.4944-4.0153-7.5999-7.5684-11.305-11.394-1.4078-1.4534-4.7294-3.7068-4.4791-5.7732l-4.2333-2.9104 0.52917-1.0583-4.4979-2.6458 0.26458-0.79375-2.3812-1.8521h0.79375v-0.26458l-7.9375-5.2917 0.26458-0.79375c-4.164-1.7875-6.8977-7.4676-11.112-8.7312l0.26458-0.52917-4.4979-3.7042c-1.3999-0.35719-2.3-1.4679-2.1167-2.9104l-1.0583 0.79375-3.4396-2.1167 0.52917-0.79375-0.79375 0.52917c-0.9226-1.845-3.6695-4.9809-5.8208-6.35-0.91122-0.57994-2.8128-1.4491-2.6458-2.1167l-4.4979-2.6458v-0.26458h1.3229v-0.26458h-1.3229l0.26458-1.5875v-0.26458c-2.3834 0.76205-2.3357-0.18735-4.4979-0.52917l-3.175-4.2333-0.79375 0.52917c-6.9591-4.5027-12.545-7.5787-21.167-5.6838-2.3998 0.52742-4.2612 2.264-6.6146 2.7734m1.1465-2.2049 0.08821 0.17637-0.08821-0.17637m2.1167 0 0.08821 0.17637-0.08821-0.17637m-1.9403 0.88194 0.26458 0.26458-0.26458-0.26458m25.135 7.4083h0.79375l-0.26458 0.52917c1.8984 0.13663 7.4435 3.5456 7.4083 5.5562l1.0583-0.26458 3.4396 3.175 1.8521 1.3229v-0.52917c1.9624 1.1691 5.0861 4.0447 6.0854 6.0854 1.3335 0.22834 2.7657 1.7412 3.4396 2.9104 1.8645 0.17013 6.8038 3.9881 7.1438 5.8208 3.0858 0.47625 4.2614 4.4913 6.8792 5.8208v-0.26458l-0.52917-0.52917 1.0583 1.3229 1.5875 0.79375-0.52917 1.0583 3.9688 1.8521-0.52917 1.0583c1.9603-0.32438 4.7337 1.8352 5.2917 3.7042l-1.0583-0.79375c1.3695 2.6223 5.7092 3.0454 6.6146 6.35h0.26458l0.26458-0.52917 2.9104 3.9688-0.52917-1.0583c0.80592 0.45535 0.86678 0.7366 0.52917 1.5875l1.0583-0.26458 0.52917 0.26458-0.26458 0.79375c1.2245-0.02963 1.9127 0.95197 2.6577 1.8624 1.6756 2.0479 3.7402 3.5624 5.4779 5.5634 0.82894 0.95435 1.9193 1.2636 1.3893 2.6284l1.3229-0.26458 1.3229 2.1167-1.0583-0.52917c0.85698 0.81227 1.996 0.89297 2.9094 1.6478 3.7592 3.1073 8.6307 7.9457 11.114 12.111l-0.79375-0.26459 1.0583 0.52917v0.79375c1.1216 0.12515 1.9063 0.4236 2.1167 1.5875 1.5327 0.4408 5.3422 5.2843 5.0271 6.8792 1.4073 0.40322 3.1149 2.2688 3.5216 3.7042 0.31221 1.102-0.20294 2.6665-1.4049 2.6458-0.10795 1.1885-0.37095 2.0386-1.5875 2.3812l-1.8521 3.4396v0.26458c-2.4307 1.4264-3.3113 4.7493-6.35 5.2917l0.52917 0.79375-2.3812 2.1167-1.0583-0.26459 0.52917 0.79375-2.1167 0.52917 0.26458 0.79375h-1.3229v0.26458l0.79375 0.26459h-1.5875v0.79375h-1.5875l-0.52917-2.1167h-0.26458c-0.4027 3.388-2.689-0.30533-3.7103-0.89667-1.0104-0.585-2.9636 0.073-3.1689-1.4846l-0.79375 0.26458-0.26458-1.0583h-0.26458l-0.52917 0.52917v-1.5875c-3.0943 0.096-5.0292-1.7193-7.6729-2.9104l0.26458-0.79375-4.6749-2.0251-1.6751-3.002h-0.26458l-0.26458 0.79375-0.79375-0.26459v-0.26458l-0.26458-2.3812c-2.4688 0.78264-2.6609-0.12779-4.7731-0.90329-1.5772-0.57917-2.3754-0.28654-3.6936-1.478v-0.26458c0.75935-0.2368 2.358-1.6391 1.0046-2.2987-0.73713-0.35957-1.8428 0.3048-2.5921 0.44661l-4.7625-1.3229v-2.3812l-1.5875-0.52917h-2.3812v-0.26458h1.0583c-0.6186-1.3343-1.6206-2.2278-2.9104-1.0583h-0.26458c-0.86968-0.53551-2.2402-0.74003-2.9371-1.4618-0.64638-0.66939-0.43206-2.1288-1.1779-2.5966-1.1229-0.70406-2.3625 1.447-3.0287-0.43947l-1.8521-0.26459 0.79375-0.26458v-0.26458h-1.5875l0.79375-1.3229c-0.72998-1.6203-2.055-2.0066-2.6458 0-0.76544-0.30215-1.7124-0.66939-2.1818-1.3928-0.35322-0.54398-0.19685-1.3946-0.8165-1.7605-1.6425-0.96997-2.825 0.44952-4.4101-1.6092l0.79375-1.5875-2.3812-0.26458v1.0583l-0.52917-0.52917-3.175-1.8521c0.073025-2.6577-1.7838-1.4459-2.9787-3.0017-0.76729-0.99933-0.11536-2.2632 0.068262-3.3483h-0.26458l-0.26458 0.79375-0.26458-0.79375h-1.3229c-0.72337 0.98663-1.4367 0.51779-2.3812 0-0.17304-1.5843-2.0349-2.3199-3.4396-2.6458l0.52917-0.79375h-1.3229c0.033602-0.93742-0.77311-1.5306-1.5875-1.8521l-1.5875-3.4396v0.52917c-1.7439-0.73925-2.8842-0.4273-2.9104-2.6458-1.2623-0.05874-2.1564-0.22754-2.3812-1.5875l-1.5875-0.52917 1.0583-2.6458c-1.5235 0.01376-3.3536 1.3338-4.2333-0.26458l0.79375-1.8521h-0.26458v1.0583l-1.0583-1.3229 0.79375 0.26458 0.52917-0.79375c0 0.93345 1.0821 0.79375 1.8521 0.79375-0.34634-2.1201-3.2078-1.1441-4.7625-2.1167l-0.26458 1.0583h-0.26458v-0.79375l-0.79375 0.52917-0.52917-2.3812c1.1604 0.16801 1.5482-0.35851 2.1167-1.3229l-0.79375-0.26458v-0.26458c3.2824 0.24474 0.66225-3.5073 0-0.26458l-1.0583-0.26458-0.52917 2.1167-1.0583-2.6458-0.79375 0.26458-0.26458-0.26458-0.26458-5.2917h-0.26458l-1.0583 1.3229h-0.26458c-1.0437-1.0896-1.8082-0.88688-3.175-0.52917l-0.26458-1.5875 2.9104-0.52917v-1.5875l-1.8521-0.26458 0.26458-0.79375-1.0583-1.0583-1.0583 0.52917-0.26458-2.6458v-0.26458l1.5875-0.79375v-2.6458l-0.79375 0.52917 0.26458-1.5875c-1.2987-0.04921-2.4197-0.48498-2.6458-1.8521l-1.8521-0.26458v-0.26458l1.8521-1.5875v-0.26458l-0.79375-1.8521c2.6063-0.93731 0.55626-2.5029 0.26458-4.2333l0.79375 0.26458c0.30763-1.4063 2.7394-0.94247 1.3229-3.175v-0.26458l1.3229-0.79375-1.0583-0.26458c1.077-1.5304 2.4094-3.1202 4.2333-3.7042l-0.26458-1.0583 1.5875-0.79375 0.52917 0.79375-0.26458-1.3229 0.26458-0.52917c2.446-0.31451 4.4563-2.5311 6.8792-3.2414 1.1038-0.32361 2.0738 0.03381 3.175-0.01797 4.6781-0.21987 7.5769 0.04548 11.642 2.7034 1.2668 0.82844 3.865 1.6217 4.2333 3.2018m-27.781-6.0854 0.26458 0.26458-0.26458-0.26458m17.904 0.61735 0.17621 0.08821-0.17621-0.08821m-9.525 0.26458 0.17621 0.08821-0.17621-0.08821m-10.319 0.26458 0.17637 0.08821-0.17637-0.08821m21.167 0 0.17621 0.08821-0.17621-0.08821m0.61727-0.08819v0.26458h0.79375l-0.79375-0.26458m-13.406 0.44098 0.08837 0.17637-0.08837-0.17637m11.465-0.08821 0.17621 0.08821-0.17621-0.08821m-11.024 0.1764v0.26458h2.1167l-2.1167-0.26458m2.3812 0 0.26458 0.26458-0.26458-0.26458m0.52917 0 0.26458 0.26458-0.26458-0.26458m0.70564 0.08819 0.17621 0.08821-0.17621-0.08821m8.9958 0 0.17621 0.08821-0.17621-0.08821m0.88186-0.08819 0.26458 0.26458-0.26458-0.26458m-23.812 0.79375v0.26458h0.79375l-0.79375-0.26458m25.4 0 0.26458 0.26458-0.26458-0.26458m0.52917 0.52917v0.52917h0.52917v-0.52917h-0.52917m-26.458 0.26458v0.26458h0.79375l-0.79375-0.26458m34.396 0 0.26458 0.26458-0.26458-0.26458m-34.925 0.26458 0.26458 0.26458-0.26458-0.26458m8.7312 0 0.26458 0.26458-0.26458-0.26458m-3.5278 2.2049 0.17637 0.08821-0.17637-0.08821m23.372-0.08818 0.26458 0.79375 1.0583-0.26458-1.3229-0.52917m2.9104 0v0.52917h0.52917l-0.52917-0.52917m-26.987 0.79375 0.26458 0.26458-0.26458-0.26458m34.925 0.26458 0.26458 0.26458-0.26458-0.26458m0.44106 0.61735 0.17621 0.08821-0.17621-0.08821m-4.4979 0.79375 0.17621 0.08821-0.17621-0.08821m-33.249 0.44098 0.26458 0.26458-0.26458-0.26458m33.779 0.08819 0.17621 0.08821-0.17621-0.08821m-39.07 0.44098-0.26458 0.26458 0.26458-0.26458m39.423 0.26458 0.26458 0.26458-0.26458-0.26458m-0.79375 0.26458 0.26458 0.26458-0.26458-0.26458m2.0286 0.35277 0.17621 0.08821-0.17621-0.08821m-1.4994 0.70556h0.79375l-0.26458-0.52917-0.52917 0.52917m2.1167-0.26458 0.26458 0.26458-0.26458-0.26458m-35.983 0.26458 0.26458 0.26458-0.26458-0.26458m-2.3812 0.26458-0.26458 0.26458 0.26458-0.26458m-5.8208 0.26458-0.52917 1.5875h0.26458l0.26458-1.5875m51.329 0v0.52917h1.0583v-0.52917h-1.0583m-5.2917 1.5875v0.26458l1.3229-0.26458h-1.3229m1.2348 0.35277 0.17621 0.08821-0.17621-0.08821m9.3485 0.1764 0.26458 0.26458-0.26458-0.26458m-6.9673 0.88194 0.17621 0.08821-0.17621-0.08821m6.1735-0.08818 0.26458 0.26458-0.26458-0.26458m-7.761 0.35277 0.17621 0.08821-0.17621-0.08821m-40.481 0.79375 0.17637 0.08821-0.17637-0.08821m40.481 0 0.17621 0.08821-0.17621-0.08821m8.5548 0.1764 0.26458 0.26458-0.26458-0.26458m-3.6161 1.2347 0.08837 0.17637-0.08837-0.17637m0.17648 0.61735 0.26458 0.26458-0.26458-0.26458m-47.36 0.26458 0.26458 0.26458-0.26458-0.26458m1.8521 0-0.79375 1.0583 0.26458 0.26458 0.52917-1.3229m1.5875 0 0.26458 0.26458-0.26458-0.26458m1.0583 0.26458c-2.1056 0.74774-3.208 2.1964-0.26458 2.9104 0.60645-0.90966 0.81719-1.6886 0-1.8521l0.26458-1.0583m48.948 0v0.52917h0.52917v-0.52917h-0.52917m-56.356 0.26458 0.52917 0.79375-0.52917-0.79375m9.2604 0.52917-0.52917 1.0583 0.79375 0.26458-0.26458-1.3229m42.686 0.1764 0.08837 0.17637-0.08837-0.17637m-48.771 0.08819v0.79375h0.26458l-0.26458-0.79375m49.212 0.26458 0.52917 0.52917v-0.52917h-0.52917m-48.419 0.26458 0.52917 0.79375v-0.79375h-0.52917m47.625 0.26458 0.26458 0.26458-0.26458-0.26458m-57.679 0.26458-0.26458 0.26458 0.26458-0.26458m-0.35277 0.70564-0.08821 0.17621 0.08821-0.17621m12.171 0.17621 0.17637 0.08837-0.17637-0.08837m53.975 0 0.17621 0.08837-0.17621-0.08837m-58.208 0.52917 0.17637 0.08837-0.17637-0.08837m58.826-0.08811 0.26458 0.26458-0.26458-0.26458m-57.679 0.26458c0.24691 3.2366 3.7127 0.08996 0 0m2.9104 0 0.26458 0.26458-0.26458-0.26458m48.419 0 0.26458 0.26458-0.26458-0.26458m-53.181 0.26458 0.26458 0.26458-0.26458-0.26458m0.70556 0.35269 0.17637 0.08837-0.17637-0.08837m54.857 0.70564 0.79375 0.52917-0.79375-0.52917m-54.24 0.26458v0.79375h0.26458l-0.26458-0.79375m-0.79375 0.26458-0.26458 0.26458 0.26458-0.26458m62.971 0.79375 0.52917 0.52917v-0.52917h-0.52917m2.6458 0 0.26458 0.26458-0.26458-0.26458m-7.6729 1.0583 0.79375 0.52917-0.79375-0.52917m-69.233 0.97023 0.0882 0.17621-0.0882-0.17621m0.97014-0.08837c0.2046 0 0.04241 0.13176-0.08819 0.08837l0.08819-0.08837m69.321-0.08811v0.26458l1.0583 0.26458v-0.26458l-1.0583-0.26458m-0.52917 0.26458 0.26458 0.26458-0.26458-0.26458m-58.473 0.26458-0.26458 0.26458 0.26458-0.26458m1.0583 0-0.79375 0.79375 0.26458-0.79375h0.52917m1.5875 0-0.26458 0.26458 0.26458-0.26458m2.1167 0v0.26458c0.94226 1.3113 2.4818 2.5088 1.8521-0.26458h-1.8521m2.1167 0 0.26458 0.26458-0.26458-0.26458m-5.2917 0.26458-0.26458 0.79375h-0.26458l0.52917-0.79375m64.029 0 0.26458 0.26458-0.26458-0.26458m-6.35 0.26458 0.26458 0.26458-0.26458-0.26458m-51.947 0.35269 0.17637 0.08837-0.17637-0.08837m53.005-0.0881 0.26458 0.26458-0.26458-0.26458m-56.621 0.26458 0.26458 0.26458-0.26458-0.26458m4.5861 0.17648 0.08821 0.17621-0.08821-0.17621m53.093-0.17648v1.0583l1.0583-0.26458v-0.26459l-1.0583-0.52917m-72.76 0.52917v1.0583h0.26458l0.26458-1.0583h-0.52917m18.521 0 0.26458 0.26458-0.26458-0.26458m-3.9688 0.52917v0.26458l1.0583-0.26458h-1.0583m57.415-0.26458 0.26458 0.26458-0.26458-0.26458m-70.644 1.3229v0.52917h-0.52917v-0.52917h0.52917m13.141 0.08811 0.17637 0.08837-0.17637-0.08837m0.08819 0.97023c2.571 3.0956 3.0523-2.989 0 0m60.325-0.52917 0.26458 0.26458-0.26458-0.26458m1.0583 0 0.26458 0.26458-0.26458-0.26458m-61.912 0.52917 0.26458 0.26458-0.26458-0.26458m9.525 0c-1.1159 3.9293 3.6573 0.51964 0 0m-5.8208 0.52917v0.52917h0.52917v-0.52917h-0.52917m-4.7625 0.52917v0.52917h-0.52917l0.52917-0.52917m-12.965 0.26458 0.52917 0.52917v-0.52917h-0.52917m17.727 0.26458c-0.06054 2.5564 1.256 1.5931 2.1167 0.26458l-2.1167-0.26458m60.06-0.26458 0.26458 0.26458-0.26458-0.26458m-65.352 0.79375 0.26458 0.52917-0.26458-0.52917m9.7896 0 0.26458 0.26458-0.26458-0.26458m0.79375 0 0.26458 0.26458-0.26458-0.26458m55.298 0 0.26458 0.26458-0.26458-0.26458m6.0854 0.26458 0.26458 0.26458-0.26458-0.26458m1.3229 0 0.26458 0.26458-0.26458-0.26458m-6.35 0.26458 1.0583 1.0583v-0.26458l-1.0583-0.79375m5.8208 0.52917 0.26458 0.26458-0.26458-0.26458m-65.617 0.26458 0.26458 0.26458-0.26458-0.26458m-1.8521 0.26458 0.26458 0.26458-0.26458-0.26458m61.648 0 0.26458 0.26458-0.26458-0.26458m-76.729 0.52917 0.26458 0.26458-0.26458-0.26458m15.61 0 0.26458 0.26458-0.26458-0.26458m1.0583 0 0.26458 0.26458-0.26458-0.26458m60.59 0 0.26458 0.26458-0.26458-0.26458m-62.442 0.52917 0.26458 0.26458-0.26458-0.26458m-14.993 0.44106 0.08821 0.17621-0.08821-0.17621m13.141 0.08811v0.26458h1.0583l-1.0583-0.26458m6.35 0v0.52917h0.52917l-0.52917-0.52917m59.531 0 1.0583 1.0583v-0.26458l-1.0583-0.79375m6.35 0.26458 0.26458 0.26458-0.26458-0.26458m-84.402 0.26458 0.26458 0.26458-0.26458-0.26458m19.844 0.52917c-2.7401-0.1434-0.86061 2.6543 0 0m59.531 0 0.26458 0.26458-0.26458-0.26458m-65.087 0.26458 0.26458 0.26458-0.26458-0.26458m2.9104 0 0.26458 0.26458-0.26458-0.26458m63.235 0 0.26458 0.26458-0.26458-0.26458m0.61727 0.70564 0.08837 0.17621-0.08837-0.17621m-79.728 0.08811 0.52917 0.79375v-0.79375h-0.52917m16.228 0.44106 0.08821 0.17621-0.08821-0.17621m2.2931-0.17648v0.52917h0.52917v-0.52917h-0.52917m-5.0271 1.3229-0.26458-0.79375-0.79375 0.26458c0.67461-0.41275 0.97602-0.23019 1.0583 0.52917m1.8521-1.0583 0.26458 0.26458-0.26458-0.26458m2.3812 0.26458 0.26458 0.26458-0.26458-0.26458m-17.992 0.26458 0.79375 0.52917v-0.26458l-0.79375-0.26458m19.579 0 0.26458 0.26458-0.26458-0.26458m61.824 0.08811 0.17621 0.08837-0.17621-0.08837m-68.174 0.17648-0.26458 0.26458 0.26458-0.26458m1.3229 0-0.26458 0.26458 0.26458-0.26458m1.0583 0 0.26458 0.26458-0.26458-0.26458m3.175 0 0.26458 0.26458-0.26458-0.26458m-1.0583 0.26458 0.26458 0.26458-0.26458-0.26458m1.0583 0.26458 0.26458 0.26458-0.26458-0.26458m0.79375 0v0.26458h0.79375l-0.79375-0.26458m62.706 0 1.3229 0.79375v0.52917l-2.1167-0.79375 0.26458 1.3229 2.1167-1.0583-1.5875-0.79375m-80.169 0.52917 0.26458 0.26458-0.26458-0.26458m0.08819 0.97023 0.08821 0.17621-0.08821-0.17621m15.787-0.17648 0.26458 0.26458-0.26458-0.26458m3.7042 0 0.26458 0.26458-0.26458-0.26458m-3.7042 0.52917v0.52917l0.52917-0.52917h-0.52917m71.967 0 0.26458 0.26458-0.26458-0.26458m-5.6444 0.35269 0.17621 0.08837-0.17621-0.08837m-79.022 0.70564 0.26458 0.26458-0.26458-0.26458m20.108 0 0.26458 0.26458-0.26458-0.26458m60.59 0 0.26458 0.26458-0.26458-0.26458m-81.492 0.26458 0.26458 0.26458-0.26458-0.26458m11.377 0v1.0583l-0.79375-0.26458v-0.26458l0.79375-0.52917m67.733 0 0.26458 0.26458-0.26458-0.26458m-57.531 0.55192c-0.72416 0.5297-0.12674 2.1728 0.75459 1.542 0.71543-0.51223 0.09181-2.1609-0.75459-1.542m60.441-0.28734v0.26458l1.0583 0.26458v-0.26458l-1.0583-0.26458m-81.58 0.35269 0.17637 0.08837-0.17637-0.08837m1.1465-0.08811 0.26458 0.26458-0.26458-0.26458m0.52917 0 0.26458 0.26458-0.26458-0.26458m79.375 0 0.26458 0.26458-0.26458-0.26458m-61.648 0.26458-0.26458 0.79375 0.26458-0.79375m-16.669 0.79375-0.52917 1.0583 0.52917-1.0583m11.994 0.17648 0.08837 0.17621-0.08837-0.17621m-0.88186 0.88186v0.26458h1.0583l-1.0583-0.26458m6.7911 0.08811 0.17621 0.08837-0.17621-0.08837m0.61727-0.08811 0.26458 0.26458-0.26458-0.26458m-18.256 0.26458 0.26458 0.26458-0.26458-0.26458m80.169 0 0.26458 0.26458-0.26458-0.26458m-65.617 0.26458-0.52917 0.26458v0.26458l0.52917-0.52917m0.79375 0 0.26458 0.26458-0.26458-0.26458m0.79375 0.26458 0.26458 0.26458-0.26458-0.26458m-2.9104 0.52917-0.26458 0.26458 0.26458-0.26458m69.233 0.08811 0.17621 0.08837-0.17621-0.08837m-0.17648 0.70564 0.26458 0.26458-0.26458-0.26458m-79.11 0.26458v1.5875h0.26458l-0.26458-1.5875m80.433 0v0.26458h0.79375l-0.79375-0.26458m-60.678 0.35269 0.17621 0.08837-0.17621-0.08837m1.1464-0.08811c0.19579 1.224 0.70247 1.4637 1.8521 1.0583-0.32359-0.97552-0.87524-1.0266-1.8521-1.0583m-0.70564 0.70564 0.088371 0.17621-0.088371-0.17621m-17.815 0.08811 0.26458 0.79375h-0.26458v-0.79375m79.64 0.26458 0.26458 0.26458-0.26458-0.26458m-61.295 0.44106 0.088371 0.17621-0.088371-0.17621m3.175 0 0.088371 0.17621-0.088371-0.17621m58.649 0.08811-0.26458 0.52917 0.26458-0.52917m-82.55 0.26458 0.26458 0.26458-0.26458-0.26458m21.431 0 0.26458 0.26458-0.26458-0.26458m-9.7896 0.26458 0.26458 0.26458-0.26458-0.26458m8.4667 0 0.26458 0.26458-0.26458-0.26458m-17.992 0.26458 0.26458 0.26458-0.26458-0.26458m8.7312 0 0.26458 0.26458-0.26458-0.26458m4.2333 0 0.26458 0.26458-0.26458-0.26458m2.3812 0v0.26458l1.0583 0.26458-1.0583-0.52917m-14.199 0.70564 0.08821 0.17621-0.08821-0.17621m80.61-0.17648 1.0583 1.3229-1.0583-1.3229m-66.322 0.44106 0.088371 0.17621-0.088371-0.17621m2.8223 1.6756c-0.51514-3.1136-4.1545 0.75724 0 0m-5.5563-1.3229v0.52917h0.52917l-0.52917-0.52917m68.792 0 0.79375 0.79375v-0.26458l-0.79375-0.52917m-66.146 0.26458 0.26458 0.26458-0.26458-0.26458m-3.2631 0.35269 0.17621 0.08837-0.17621-0.08837m0.88186 0.17648 0.26458 0.26458-0.26458-0.26458m2.3812 0.26458 0.26458 0.26458-0.26458-0.26458m-10.319 0.52917 0.26458 0.52917h-0.52917l0.26458-0.52917m78.581 0.52917 0.26458 0.26458-0.26458-0.26458m-68.262 0.26458v0.26458h0.79375l-0.79375-0.26458m74.524 0.08811 0.17621 0.08837-0.17621-0.08837m-5.7327 0.17648 0.26458 0.26458-0.26458-0.26458m-65.352 0.26458 0.26458 0.26458-0.26458-0.26458m0.79375 0 0.26458 0.26458-0.26458-0.26458m1.0583 0 0.26458 0.26458-0.26458-0.26458m5.8208 1.5875 1.8521 0.26458c-0.53949-1.3235-1.6719-2.576-1.8521-0.26461m1.8521-1.3229 0.26458 0.26458-0.26458-0.26458m62.706 0v0.26458h1.0583l-1.0583-0.26458m-69.762 0.70564 0.088371 0.17621-0.088371-0.17621m64.823 0 0.08837 0.17621-0.08837-0.17621m-57.767 0.08811 0.26458 0.26458-0.26458-0.26458m58.473 0v0.52917l0.52917-0.52917h-0.52917m-67.733 1.5875c1.1049-0.03625 1.6595-0.1688 1.8521-1.3229-1.0467 0.0807-1.4859 0.32597-1.8521 1.3229m-0.52917-1.0583-0.26458 0.52917h0.52917l-0.26458-0.52917m-10.054 0.26458 0.26458 0.26458-0.26458-0.26458m13.229 0 0.26458 0.26458-0.26458-0.26458m64.294 0 0.26458 0.26458-0.26458-0.26458m1.3229 0 0.26458 0.26458-0.26458-0.26458m-65.881 0.52917 0.26458 0.26458-0.26458-0.26458m-12.171 0.26458 0.26458 0.26458-0.26458-0.26458m10.319 0.26458v0.79375h0.26458l-0.26458-0.79375m0.88186 0.17648 0.088371 0.17621-0.088371-0.17621m0.79375 0 0.088371 0.17621-0.088371-0.17621m73.29 0.79375 0.08837 0.17621-0.08837-0.17621m-74.701 0.08811 0.26458 0.26458-0.26458-0.26458m-11.112 0.26458 0.26458 0.26458-0.26458-0.26458m3.4396 0-0.26458 0.26458 0.26458-0.26458m76.465 0 0.26458 0.26458-0.26458-0.26458m-77.523 0.79375 0.26458 0.26458-0.26458-0.26458m12.965 0.79375 0.26458-0.79375c-0.87392 0.35004-2.4802 2.341-0.51885 2.2815 1.239-0.03731 1.3245-1.1311 0.25426-1.4878m-11.906-0.52917 0.26458 0.26458-0.26458-0.26458m78.052 0.52917 0.26458 0.26458-0.26458-0.26458m0.79375 0v0.52917h0.52917v-0.52917h-0.52917m-59.796 0.79375v0.26458l1.8521 1.5875v-2.3812l-1.8521 0.52916m-18.785-0.26458 0.26458 0.26458-0.26458-0.26458m0.79375 0 0.26458 0.26458-0.26458-0.26458m1.0583 0 0.26458 0.26458-0.26458-0.26458m11.377 0 0.26458 0.26458-0.26458-0.26458m66.322 0.08811 0.17621 0.08837-0.17621-0.08837m5.2917 0.52917 0.17621 0.08837-0.17621-0.08837m-66.587 0.17647v0.52917h0.52917v-0.52917h-0.52917m-14.729 0.70564 0.088371 0.17621-0.088371-0.17621m18.962-0.17648 0.26458 0.26458-0.26458-0.26458m-10.936 0.35269 0.17621 0.08837-0.17621-0.08837m7.2319-0.088106-0.26458 0.52917h0.52917l-0.26458-0.52917m61.383 0 0.26458 0.26458-0.26458-0.26458m0.79375 0v0.79375h0.26458l-0.26458-0.79375m-78.052 0.26458 0.26458 0.26458-0.26458-0.26458m83.608 0 0.26458 0.26458-0.26458-0.26458m-74.877 0.52917 0.26458 0.26458-0.26458-0.26458m6.8792 0c-2.2635 2.6855 1.7222 2.4998 0 0m-5.2917 0.26458 0.26458 0.26458-0.26458-0.26458m7.1437 0 0.26458 0.26458-0.26458-0.26458m66.587 0.08811 0.17621 0.08837-0.17621-0.08837m1.0583 0 0.17621 0.08837-0.17621-0.08837m-82.726 0.17648 0.26458 0.26458-0.26458-0.26458m11.377 0 0.26458 0.26458-0.26458-0.26458m65.705 0.17648 0.08837 0.17621-0.08837-0.17621m-76.465 0.52917 0.088371 0.17621-0.088371-0.17621m77.258 0 0.08837 0.17621-0.08837-0.17621m4.6744-0.17648v0.52917l0.52917-0.52917h-0.52917m-5.4681 0.70564 0.08837 0.17621-0.08837-0.17621m-74.965 0.61727v1.3229h0.26458l-0.26458-1.3229m7.4083 0-0.26458 0.52917 0.26458-0.52917m75.935 0.26458 0.26458 0.26458-0.26458-0.26458m-67.733 0.26458 0.26458 0.26458-0.26458-0.26458m1.5875 0c-3.6385 1.9571 1.8529 3.2639 0 0m59.796 0v0.52917h0.52917v-0.52917h-0.52917m-66.234 0.61727 0.17621 0.08837-0.17621-0.08837m71.967 0 0.17621 0.08837-0.17621-0.08837m-82.197 0.17648 1.5875 0.52917v-0.26458l-1.5875-0.26458m14.817 0.26458 0.26458 0.26458-0.26458-0.26458m-15.346 0.26458 0.26458 0.26458-0.26458-0.26458m10.054 0 0.26458 0.26458-0.26458-0.26458m5.3798 0.44106 0.088371 0.17621-0.088371-0.17621m0.17648 0.88186 0.26458 0.26458-0.26458-0.26458m1.5875 0v0.52917h0.52917v-0.52917h-0.52917m62.706 0 0.26458 0.26458-0.26458-0.26458m-75.759 0.35269 0.17621 0.08837-0.17621-0.08837m0.88186-0.08811 0.26458 0.26458-0.26458-0.26458m11.377 0v0.52917h0.52917l-0.52917-0.52917m63.941 0.61727 0.17621 0.08837-0.17621-0.08837m-65.881 0.26458 0.17621 0.08837-0.17621-0.08837m12.788-0.08811 0.26458 0.26458-0.26458-0.26458m54.24 0 0.26458 0.26458-0.26458-0.26458m-67.998 0.26459 0.26458 0.26458-0.26458-0.26458m3.175 2.3813c-0.01561-4.3852-3.4967-0.2667 0 0m69.497-2.2931 0.17621 0.08837-0.17621-0.08837m-60.418 0.46011c-0.97076 0.58605-0.30824 2.404 0.78502 1.7333 1.0848-0.66516 0.43101-2.4675-0.78502-1.7333m56.009-0.28363 0.52917 1.3229h0.26458l-0.79375-1.3229m-74.612 0.26458 0.52917 0.79375-0.52917-0.79375m6.9673 0.17648 0.088371 0.17621-0.088371-0.17621m-7.4964 0.35269v0.79375h0.26458l-0.26458-0.79375m74.877 0v0.79375h0.26458l-0.26458-0.79375m-67.116 0.44106 0.088371 0.17621-0.088371-0.17621m73.554 0 0.08837 0.17621-0.08837-0.17621m-80.521 0.35269 0.26458 0.26458-0.26458-0.26458m1.3229 0.26458 0.26458 0.26459-0.26458-0.26459m14.552 0 0.26458 0.26459-0.26458-0.26459m64.558 0 0.26458 0.26459-0.26458-0.26459m-65.352 0.26459 0.26458 0.79375c-1.9053 1.7383 3.2927 1.1049 0.53234-0.5215-0.2114-0.12461-0.58552-0.20373-0.79692-0.27225m-6.7027 0.61727 0.17621 0.0884-0.17621-0.0884m9.8777-0.0881 0.26458 0.26459-0.26458-0.26459m58.737 0.52917 0.26458 0.26458-0.26458-0.26458m-64.823 0.26458 0.26458 0.26459-0.26458-0.26459m6.6146 0 0.26458 0.26459-0.26458-0.26459m-3.4396 0.26459-0.26458 0.26458 0.26458-0.26458m62.354 0.0881 0.17621 0.0884-0.17621-0.0884m-51.594 0.26459 0.17621 0.0884-0.17621-0.0884m56.444-0.0881 0.26458 0.26458-0.26458-0.26458m-78.052 0.26458 0.26458 0.26459-0.26458-0.26459m23.283 0 0.26458 0.26459-0.26458-0.26459m-12.524 0.61728 0.17621 0.0884-0.17621-0.0884m11.994 1.764 2.3812 0.52917 0.26458-2.1167c-1.4063 5e-3 -2.327 0.059-2.6458 1.5875m57.591-1.4994 0.17621 0.0884-0.17621-0.0884m-70.203 0.35295 0.08837 0.17622-0.08837-0.17622m64.823 0 0.08837 0.17622-0.08837-0.17622m-74.965 0.0881v0.26458h0.79375l-0.79375-0.26458m2.1167 0-0.26458 0.52917h0.52917l-0.26458-0.52917m71.967 0 0.26458 0.26458-0.26458-0.26458m-74.965 0.35269 0.17621 0.0884-0.17621-0.0884m9.8777 0.17648 0.26458 0.26458-0.26458-0.26458m12.7 0 0.26458 0.26458-0.26458-0.26458m-3.7923 0.35269 0.17621 0.0884-0.17621-0.0884m0.61727-0.0881 0.26458 0.26458-0.26458-0.26458m-0.15187 0.80619c-0.8345 0.60166 0.31009 1.927 1.1221 1.3764 1.0189-0.69083-0.21802-2.028-1.1221-1.3764m57.831-0.27702 1.3229 1.5875-1.3229-1.5875m-72.672 0.44106 0.088371 0.17621-0.088371-0.17621m12.965 0 0.08837 0.17621-0.08837-0.17621m6.8792 0 0.08837 0.17621-0.08837-0.17621m-18.874 0.0881-0.52917 0.79375 0.52917-0.79375m19.579 0.52917v0.26458h1.3229v-0.52916l-1.3229 0.26458m-7.3202 0.17648 0.08837 0.17621-0.08837-0.17621m65.881 0 0.08837 0.17621-0.08837-0.17621m-79.199 0.0881 0.26458 0.26459-0.26458-0.26459m13.758 0 0.26458 0.26459-0.26458-0.26459m-3.9688 0.26459 0.26458 0.26458-0.26458-0.26458m14.817 0 0.26458 0.26458-0.26458-0.26458m3.7042 0 0.26458 0.26458-0.26458-0.26458m-26.194 0.26458 0.52917 0.52917v-0.52917h-0.52917m23.371 0.17648 0.08837 0.17621-0.08837-0.17621m1.2348-0.17648 0.26458 0.26458-0.26458-0.26458m0.88186 0.17648 0.08837 0.17621-0.08837-0.17621m-1.411 2.2048c0.94615-0.38021 1.0258-0.86942 1.0583-1.8521-1.2091 0.19447-1.4573 0.71464-1.0583 1.8521m48.683-1.8521v0.52916h0.52917l-0.52917-0.52916m-59.796 0.26458 0.26458 0.26458-0.26458-0.26458m-10.054 0.26458 0.26458 0.26459-0.26458-0.26459m7.9375 0 0.26458 0.26459-0.26458-0.26459m-8.4667 0.52917 0.26458 0.26458-0.26458-0.26458m0.97023 0.0881 0.17621 0.0884-0.17621-0.0884m6.7027-0.0881-0.26458 0.26458 0.26458-0.26458m0.79375 0 0.26458 0.26458-0.26458-0.26458m61.912 0 0.26458 0.26458-0.26458-0.26458m-55.033 0.26458 0.26458 0.26459-0.26458-0.26459m5.2917 0 0.26458 0.26459-0.26458-0.26459m56.092 0 0.26458 0.26459-0.26458-0.26459m1.0583 0 0.26458 0.26459-0.26458-0.26459m-67.204 0.26459 0.26458 0.26458-0.26458-0.26458m5.2917 0-0.26458 0.79375v0.26458l0.52917 0.52917-0.79375-0.26459v0.26459h2.1167v-1.3229l-1.5875-0.26458m-13.229 0.26458 0.26458 0.26458-0.26458-0.26458m9.7015 0.0881 0.17621 0.0884-0.17621-0.0884m7.4964-0.0881 0.26458 0.26458-0.26458-0.26458m1.0583 0.26458 0.26458 0.26459-0.26458-0.26459m1.4994 0.0881 0.17621 0.0884-0.17621-0.0884m-19.05 0.26458 0.17621 0.0884-0.17621-0.0884m8.2021 0 0.17621 0.0884-0.17621-0.0884m10.142-0.0881 0.26458 0.26458-0.26458-0.26458m2.1167 0 0.26458 0.26458-0.26458-0.26458m48.683 0v0.26458h0.79375l-0.52917 0.52917v0.26458l1.0583-0.26458v-0.52917l-1.3229-0.26458m-68.527 0.26458 0.79375 0.79375-0.79375-0.79375m-1.3229 0.26458 0.79375 0.52917-0.79375-0.52917m11.906 0.26459 0.26458 0.26458-0.26458-0.26458m64.47 0.0881 0.17621 0.0884-0.17621-0.0884m0 0.79375 0.17621 0.0884-0.17621-0.0884m-4.1452 0.17648 0.26458 0.26458-0.26458-0.26458m-68.174 0.70564 0.08837 0.17622-0.08837-0.17622m68.439-0.17647 0.52917 0.79375-0.52917-0.79375m-67.91 0.70564 0.08837 0.17621-0.08837-0.17621m10.231 0.0881v0.52916h0.52917l-0.52917-0.52916m8.9958 0.26458-1.5875 1.0583v0.26459c0.3093 0.52176 0.34316 0.4482-0.26458 0.52916v0.26459c1.3965-0.13309 2.8117-0.47096 1.8521-2.1167m1.5875 0 0.26458 0.26458-0.26458-0.26458m47.625 0 0.26458 0.26458-0.26458-0.26458m5.0271 0 0.26458 0.26458-0.26458-0.26458m-56.444 0.61727 0.17621 0.0884-0.17621-0.0884m3.0866 0.0884 0.08837 0.17621-0.08837-0.17621m53.093-0.17648 0.26458 0.26458-0.26458-0.26458m0.88186 0.17648 0.08837 0.17621-0.08837-0.17621m-70.467 0.35268 0.26458 0.26459-0.26458-0.26459m65.617 0 0.26458 0.26459-0.26458-0.26459m-52.299 0.44107 0.08837 0.17621-0.08837-0.17621m3.9688 0.26458 0.08837 0.17621-0.08837-0.17621m-17.374 0.17621 0.17621 0.0884-0.17621-0.0884m16.492-0.0881 0.26458 0.26459-0.26458-0.26459m47.625 0 0.26458 0.26459-0.26458-0.26459m-53.622 0.44107 0.08837 0.17621-0.08837-0.17621m56.533 0.35268 0.26458 0.26459-0.26458-0.26459m5.2036 0.35269 0.17621 0.0884-0.17621-0.0884m-68.704 0.17648 0.26458 0.26458-0.26458-0.26458m64.206 0.35269 0.17621 0.0884-0.17621-0.0884m-42.245 0.17648c-0.4998 1.1033-0.37624 1.6851 0.79375 2.1167 0.27199-1.029 0.15875-1.5912-0.79375-2.1167m40.834 0.17648 0.08837 0.17621-0.08837-0.17621m-63.147 0.17621 0.17621 0.0884-0.17621-0.0884m63.853-0.0881 0.26458 0.26458-0.26458-0.26458m1.0583 0 0.26458 0.26458-0.26458-0.26458m-48.419 0.52917v0.26458h0.79375l-0.79375-0.26458m55.033 0.26458 0.26459 0.26458-0.26459-0.26458m-69.056 0.26458v0.26459l1.0583 0.26458v-0.26458l-1.0583-0.26459m15.169 0.44107 0.08837 0.17621-0.08837-0.17621m52.829-0.17648 0.52917 0.52916v-0.52916h-0.52917m-4.3214 0.61727 0.17621 0.0884-0.17621-0.0884m-64.647 0.35296 0.08837 0.17621-0.08837-0.17621m69.938 0.44079 0.17621 0.0884-0.17621-0.0884m-64.999 0.70564v0.52917h0.52917v-0.52917h-0.52917m9.2604 0-0.26458 0.26459 0.26458-0.26459m51.946 0.17648 0.08837 0.17621-0.08837-0.17621m-60.413 0.61727v0.26459l1.0583 0.26458-1.0583-0.52917m-1.1464 0.35269 0.17621 0.0884-0.17621-0.0884m12.171 0.26459 0.17621 0.0884-0.17621-0.0884m2.9985 2.0286h0.26458l0.26458-0.79375c1.1441 0.21775 1.4978-0.1987 1.5875-1.3229-1.3973 0.10875-1.7087 0.86175-2.1167 2.1167m46.302-2.1167 0.26458 0.26458-0.26458-0.26458m0.52917 0.26458-0.52917 1.8521h0.26458l0.26458-1.8521m-50.888 0.35269 0.17621 0.0884-0.17621-0.0884m1.411 0.44106h0.79375l-0.26458-0.52916-0.52917 0.52916m2.6458-0.52916 0.26458 0.26458-0.26458-0.26458m-11.112 0.79375 1.3229 0.79375v-0.26459l-1.3229-0.52916m1.764 0.35269 0.17621 0.0884-0.17621-0.0884m10.142 0.17647 0.26458 0.26459-0.26458-0.26459m0.79375 0 0.26458 0.26459-0.26458-0.26459m7.6729 0.26459 0.26458 0.26458-0.26458-0.26458m1.8521 0-0.79375 1.3229v0.26459c1.8389 1.6849 3.0361 0.62547 2.1167-1.5875h-1.3229m41.54 0 0.26459 0.26458-0.26459-0.26458m-51.329 0.26458v0.26458h0.79375l-0.79375-0.26458m11.642 0 0.26458 0.26458-0.26458-0.26458m32.279 0 0.26458 0.26458-0.26458-0.26458m5.2917 0-0.26459 0.26458 0.26459-0.26458m-50.535 0.26458-0.26458 0.26459 0.26458-0.26459m14.817 0.26459-0.52917 1.0583 0.79375 0.52917-0.26458-1.5875m-5.8208 0.79375c-1.9854 2.3868 0.32279 2.8832 1.3229 0.52916l-1.3229-0.52916m-17.11 0.44106 0.08837 0.17621-0.08837-0.17621m1.5875 0 0.08837 0.17621-0.08837-0.17621m0.52917 0.26458 0.08837 0.17621-0.08837-0.17621m13.494 0 0.08837 0.17621-0.08837-0.17621m47.36 0 0.0884 0.17621-0.0884-0.17621m-44.009 0.35269 0.26458 0.26458-0.26458-0.26458m39.952 2.1167c1.8296-0.16166 3.528 2.1894 4.2333 3.7042l2.3812 1.5875-0.26458 0.79375c1.6679 0.39556 5.3382 2.3172 5.2917 4.2333 2.0442 0.73289 1.1118 3.466 0.79375 5.0271h-1.0583l0.26459 1.5875h-0.79375v0.26459c0.59108 2.5172-2.326 4.9972-4.4979 5.5562l0.52917 0.79375-1.5875 0.52916-1.0583 0.79375 0.26459-1.0583-0.79375-0.26458 0.52916-0.26459v-0.26458c-2.2542-0.48181-5.2499-3.0239-7.1437-1.5875v0.26458l3.175 2.3812v0.26459l-0.79375-0.52917h-0.26458l-0.52917 0.52917c-1.02-1.4372-1.3039-2.24-3.175-1.8521l0.26458 1.0583h-0.26458l-1.0583-1.5875 0.26458-1.3229c4.3254 0.17383-0.83688-4.6207-0.26458-0.26458h-1.3229c-0.84428-1.0491-1.7455-0.94219-2.6458 0-1.0914-0.46276-1.8986-0.84059-1.8521-2.1167l-0.79375-2.3812v-0.26458c1.8505 0.47704 2.4191 0.70723 3.175-1.3229l-1.8521-0.26459-0.26458-4.2333c-1.12-0.75962-0.16775-1.8404 0.5752-2.622 1.3401-1.4094 2.944-2.5554 4.1431-4.1087 1.0927-1.4153 2.082-3.4351 3.5698-4.482 1.1033-0.77655 2.6874 0.25109 2.8244 1.4232m-55.21-1.411 0.08837 0.17621-0.08837-0.17621m11.289-0.17648v0.52916l0.52917-0.52916h-0.52917m41.54 0 0.26458 0.26458-0.26458-0.26458m6.0854 0 0.52916 0.52916v-0.52916h-0.52916m-59.796 0.26458 0.26458 0.26458-0.26458-0.26458m16.14 0 0.26458 0.26458-0.26458-0.26458m-14.817 0.26458v0.52917l0.52917-0.52917h-0.52917m13.758 0 0.79375 0.52917-0.79375-0.52917m7.6729 0 0.26458 0.26459-0.26458-0.26459m31.75 0v0.52917h0.52917v-0.52917h-0.52917m-41.804 0.26459 0.26458 0.26458-0.26458-0.26458m8.246 0.27596c-1.2557 0.73422 0.03836 2.5919 1.2062 2.0479 1.4835-0.69082 0.24553-2.8966-1.2062-2.0479m32.764-0.27596 0.26458 0.26458-0.26458-0.26458m-52.917 0.26458 0.26458 0.26458-0.26458-0.26458m1.5875 0 0.26458 0.26458-0.26458-0.26458m9.525 0 0.26458 0.26458-0.26458-0.26458m1.8521 0 0.26458 0.26458-0.26458-0.26458m0.70564 0.0881 0.17621 0.0884-0.17621-0.0884m41.099-0.0881 0.26459 0.26458-0.26459-0.26458m-36.248 0.26458 0.26458 0.26459-0.26458-0.26459m28.751 0.0881 0.17621 0.0884-0.17621-0.0884m-0.97023 0.17648 0.52917 0.52916-0.52917-0.52916m-42.686 0.61727 0.17621 0.0884-0.17621-0.0884m51.594 0 0.17622 0.0884-0.17622-0.0884m0.88186-0.0881 0.52917 0.52917v-0.52917h-0.52917m-53.71 0.52917 0.26458 0.26458-0.26458-0.26458m48.242 0.17648 0.08837 0.17621-0.08837-0.17621m4.939-0.17648v0.52917h0.52917v-0.52917h-0.52917m-51.329 0.26458 0.26458 0.26459-0.26458-0.26459m13.494 0c-2.0286 2.7194 2.2677 1.2851 0 0m39.423 0 0.52917 0.52917-0.52917-0.52917m-54.063 0.35269 0.17621 0.0884-0.17621-0.0884m18.874-0.0881 0.26458 0.26458-0.26458-0.26458m29.545 0.0881 0.17621 0.0884-0.17621-0.0884m4.8506-0.0881 0.26459 0.26458-0.26459-0.26458m-40.746 0.26458 0.26458 0.26458-0.26458-0.26458m28.575 0 0.26458 0.26458-0.26458-0.26458m5.9973 0.0881 0.17621 0.0884-0.17621-0.0884m13.582-0.0881 0.26458 0.26458-0.26458-0.26458m-19.579 1.5875h0.26458l0.79375-0.79375-1.0583 0.79375m13.494-1.0583 0.79375 0.79375-0.79375-0.79375m-7.8494 0.44106 0.08837 0.17621-0.08837-0.17621m-42.774 0.17621 0.17621 0.0884-0.17621-0.0884m12.524 1.764c4.2593 0.48842 0.57758-3.6986 0 0m37.835-1.5875 0.26458 0.26458-0.26458-0.26458m-39.599 0.70564 0.08837 0.17621-0.08837-0.17621m32.808 0 0.08837 0.17621-0.08837-0.17621m7.4083 0 0.0884 0.17621-0.0884-0.17621m-48.507 0.0881 0.26458 0.26458-0.26458-0.26458m33.602 0-1.0583 1.5875 1.0583-1.5875m-1.1464 0.35269 0.17621 0.0884-0.17621-0.0884m17.551-0.0881 0.26459 0.26458-0.26459-0.26458m0.52917 0.79375 0.79375 0.79375-0.79375-0.79375m-40.217 0.26458 0.26458 0.26459-0.26458-0.26459m4.4979 0-0.52917 1.5875c1.6314 0.68607 2.6294 0.30137 2.3812-1.5875h-1.8521m35.278 0.17648 0.0884 0.17621-0.0884-0.17621m-48.507 0.35269v0.26458l1.0583-0.26458h-1.0583m37.218 0.0881 0.17621 0.0884-0.17621-0.0884m-36.16 0.17647 0.26458 0.26459-0.26458-0.26459m18.521 0.26459 0.26458 0.26458-0.26458-0.26458m31.133 0.0881 0.17621 0.0884-0.17621-0.0884m-22.049 0.35296 0.08837 0.17621-0.08837-0.17621m6.2619 0.0881 0.26458 0.26459-0.26458-0.26459m-31.75 0.26459v0.26458h0.79375l-0.79375-0.26458m13.758 0.79375c1.5962 3.0326 3.9672-1.8375 0 0m2.6458-0.79375 0.26458 0.26458-0.26458-0.26458m9.525 0-0.52917 0.79375 0.52917-0.79375m5.1152 0.17648 0.08837 0.17621-0.08837-0.17621m17.022-0.0884 0.17622 0.0884-0.17622-0.0884m-37.835 0.52917 0.17621 0.0884-0.17621-0.0884m-9.1723 0.17648 0.26458 0.26458-0.26458-0.26458m48.683 0 0.26458 0.26458-0.26458-0.26458m-38.188 0.35269 0.17621 0.0884-0.17621-0.0884m19.667-0.0881 0.26458 0.26458-0.26458-0.26458m-19.05 0.26458 0.26458 0.26459-0.26458-0.26459m11.906 0v0.52917l0.52917-0.52917h-0.52917m5.4681 0.61728 0.17621 0.0884-0.17621-0.0884m-26.106 0.17647 0.26458 0.26459-0.26458-0.26459m1.0583 0v0.52917h0.52917l-0.52917-0.52917m12.083 0.0881 0.17621 0.0884-0.17621-0.0884m35.366 0.0884 0.0884 0.17621-0.0884-0.17621m-33.426 2.4694c4.3857-0.47546-0.96361-4.2556 0 0m-1.0583-2.1167 0.26458 0.26458-0.26458-0.26458m-12.171 0.26458 0.52917 0.52917v-0.52917h-0.52917m-0.79375 0.26459v0.52916h0.52917v-0.52916h-0.52917m47.449 0.17648 0.0884 0.17621-0.0884-0.17621m6.35 0 0.0884 0.17621-0.0884-0.17621m-27.605 0.0881 0.52917 1.5875h0.26458l-0.79375-1.5875m21.784 0.17648 0.0884 0.17621-0.0884-0.17621m4.939-0.17648v0.79375h0.26458l-0.26458-0.79375m-40.393 0.44106 0.08837 0.17621-0.08837-0.17621m41.187 0.0881-0.26459 0.52916h0.52917l-0.26458-0.52916m-49.477 0.79375v0.26458l0.79375 0.26458-0.79375-0.52916m10.231 0.35269 0.17621 0.0884-0.17621-0.0884m-0.17648 0.79375c0.20452 0 0.04233 0.13176-0.08811 0.0884l0.08811-0.0884m12.171-0.0881v0.26458h0.79375l-0.79375-0.26458m1.411 0.17648 0.08837 0.17621-0.08837-0.17621m1.4994 2.2048c1.274-0.1434 1.7867-0.61912 2.1167-1.8521-1.7283-0.69295-2.3588 0.11774-2.1167 1.8521m24.43-2.2048 0.0884 0.17621-0.0884-0.17621m-27.34 0.35269v0.26458h1.0583l-1.0583-0.26458m2.1167 0.26458 0.26458 0.26458-0.26458-0.26458m-20.373 0.26458 0.26458 0.26459-0.26458-0.26459m19.315 0 0.26458 0.26459-0.26458-0.26459m25.488 0.70565 0.0884 0.17621-0.0884-0.17621m-5.6444 0.0881v0.79375h0.26458l-0.26458-0.79375m-25.4 0.79375 1.0583 2.1167-0.79375 0.26459-0.79375-2.1167-0.52917 0.52917-0.26458-0.79375h1.3229m5.5562 2.1167c1.2893 0.38709 1.8555 0.35137 2.9104-0.52916-1.1348-1.484-2.4111-1.2941-2.9104 0.52916m26.194-1.5875 0.26458 0.26459-0.26458-0.26459m-28.487 0.44106 0.08837 0.17621-0.08837-0.17621m-14.111 0.0881v0.52917l0.52917-0.52917h-0.52917m1.5875 0 0.26458 0.26458-0.26458-0.26458m1.411 0.44106 0.08837 0.17621-0.08837-0.17621m11.906 0 0.08837 0.17621-0.08837-0.17621m-1.411 0.0881v0.52916h0.52917l-0.52917-0.52916m-9.525 0.52916-0.26458 0.52917h0.52917l-0.26458-0.52917m15.346 0.52917 0.26458 0.26458-0.26458-0.26458m20.902 0 0.26458 0.26458-0.26458-0.26458m-36.865 0.35269 0.17621 0.0884-0.17621-0.0884m2.2048-0.0881 0.26458 0.26459-0.26458-0.26459m12.7 0 0.26458 0.26459-0.26458-0.26459m-14.287 0.52917 0.26458 0.26458-0.26458-0.26458m14.729 0.35269 0.17621 0.0884-0.17621-0.0884m16.316 0.0884 0.0884 0.17621-0.0884-0.17621m-12.259 0.0881 0.52917 0.52916-0.52917-0.52916m1.1464 0.17647 0.08837 0.17621-0.08837-0.17621m1.1467 0.4408 0.17621 0.0884-0.17621-0.0884m9.3485 0.17648 0.26459 0.26458-0.26459-0.26458m-25.929 0.26458 0.79375 0.52917-0.79375-0.52917m9.525 0.52917-0.26458 0.26458 0.26458-0.26458m2.7339 0.17647 0.08837 0.17621-0.08837-0.17621m-12.347 0.17621 0.17621 0.0884-0.17621-0.0884m18.874 0.17648 0.26459 0.26459-0.26459-0.26459m-14.817 0.26459 0.26458 0.26458-0.26458-0.26458m19.491 0.0881 0.17621 0.0884-0.17621-0.0884m10.671-0.0881 0.26458 0.26458-0.26458-0.26458m-21.96 0.26458 0.26458 0.26458-0.26458-0.26458m8.3786 0.0881 0.17621 0.0884-0.17621-0.0884m8.0256-0.0881-0.26459 0.79375 1.0583-0.26458 1.3229 3.175 1.0583-0.26459v2.1167l1.0583 1.8521-3.4396-3.9688v-0.26458l1.0583-0.26458c-1.2084-0.61992-2.1762-1.0401-2.6458-2.3812l0.79375-0.52917m-23.636 0.35269 0.17621 0.0884-0.17621-0.0884m0.88186 0.17648-0.26458 0.79375 0.26458-0.79375m23.019 0.79375 0.26458 0.26458-0.26458-0.26458m-14.023 0.26458-0.26458 0.26458 0.26458-0.26458m0.26458 0.52917-0.79375 0.79375 0.79375-0.79375m-7.1438 0.26458 0.79375 0.79375-0.79375-0.79375m0 0.79375 0.26458 0.26458-0.26458-0.26458m0.70564 0.61727 0.17621 0.0884-0.17621-0.0884m1.1464-0.0881 0.26458 0.26458-0.26458-0.26458m0.44106 0.61727 0.17621 0.0884-0.17621-0.0884m15.434 0.17648-0.26458 0.52916h0.52916l-0.26458-0.52916m-14.287 0.26458 0.26458 0.26458-0.26458-0.26458m13.141 0.0881 0.17621 0.0884-0.17621-0.0884m2.0283 0.0884 0.0884 0.17621-0.0884-0.17621m-14.111 0.35269 0.26458 0.26458-0.26458-0.26458m12.435 0.26458v0.26458l1.5875 0.26459-1.5875-0.52917m-12.965 0 0.26458 0.26458-0.26458-0.26458m-1.0583 0.26458 0.26458 0.26459-0.26458-0.26459m24.871 0.26459 0.26458 0.26458-0.26458-0.26458m-21.167 0.79375 0.26458 0.26458-0.26458-0.26458m0 0.79375 0.26458 0.26458-0.26458-0.26458m5.8208 0.52916 0.79375-0.52916-0.79375 0.52916m-5.0271-0.26458 0.26458 0.26458-0.26458-0.26458m13.229 0-0.26459 0.26458 0.26459-0.26458m3.9688 0.26458-0.26459 0.26459 0.26459-0.26459m-4.6744 0.97023 0.0884 0.17621-0.0884-0.17621m-0.0881 0.88186 0.26458 0.26458-0.26458-0.26458m0.79375 1.8521v1.5875h0.26458l-0.26458-1.5875m-0.79375 0.52917 0.26458 0.26458-0.26458-0.26458m7.9375 0 0.26458 0.26458-0.26458-0.26458m27.252 0.26458 0.26458 0.26458-0.26458-0.26458m0.52917 0 0.26458 0.26458-0.26458-0.26458m0.52916 0 0.26459 0.26458-0.26459-0.26458m0.79375 0 0.26459 0.26458-0.26459-0.26458m9.7896 0 0.26458 0.26458-0.26458-0.26458m-5.5562 0.52917 0.26458 0.26458-0.26458-0.26458m5.7327 0.0881 0.17622 0.0884-0.17622-0.0884m0.88186-0.0881v0.26458h2.9104l-2.9104-0.26458m12.259 1.764 0.0884 0.17621-0.0884-0.17621m-55.121 0.88186 0.52917 1.8521h-0.26459l-0.26458-1.0583h-0.26458v1.3229h-0.26459l0.52917-2.1167m61.383 6.8792-0.26458 0.79375 5.5562 3.7042-0.26459 0.79375 1.3229 1.5875h0.26458l0.26459-0.52916 0.26458 0.26458-0.52917 0.52917c1.1882 0.2278 2.8292 0.9861 2.1167 2.3812 1.0165 0.20637 1.5674 0.56806 1.8521 1.5875 2.2069 0.0696 3.434 2.5109 4.9189 3.8682 2.8435 2.5995 5.5158 5.3549 8.3553 7.9788 1.3401 1.2385 2.672 1.9375 3.7809 3.4713 1.1335 1.5679 3.4922 2.3765 3.5824 4.5254l0.79375-0.52917c1.0179 2.2405 3.5327 4.3275 5.3152 6.0098 1.2523 1.1816 2.803 2.1397 2.6223 4.0444h1.0583l2.1167 3.175 0.79375-0.26459 0.52917 1.0583-0.52917-0.52917h-0.26458c1.2356 2.2712 6.0166 4.7294 5.8208 7.6729l0.79375-0.26459 1.5875 1.5875-0.52916 0.79375c1.0028 0.21193 1.487 0.54769 1.5875 1.5875l7.4083 9.2604-0.26458 2.1167h0.26458v-1.3229h0.52917l2.4738 4.0801 4.9345 9.4136-2.9104 0.26458-0.26458 1.5875 1.8521 1.3229-2.3812 0.52917-9.7896-1.5875v-0.79375c-1.8124 0-5.1779 0.62124-6.35-1.0583l-5.2917-0.52916v-0.26459h0.79375v-0.26458c-2.8416 0.33549-5.6698-0.18706-8.4667-0.78158-1.0586-0.2249-2.3045-0.16801-2.6458-1.3351-1.3851 0.4617-3.135-0.37782-4.4979-0.52916-1.987-0.22067-6.0553-0.44609-8.4667-1.3229-0.74348-0.2704-0.31909-0.91969-1.0583-1.3229-0.93239-0.50853-2.7937-0.32702-2.6458 0.26459-4.6093-0.58711-9.199-2.0246-13.759-2.6868-1.3134-0.19076-4.4495-0.3511-4.7614-1.8111-1.125 0.18759-1.9468 0.5842-2.1167-0.26458h-0.26459l-0.26458 0.52916-8.9958-3.175v-0.26458h1.3229v-0.26458c-6.8749 0.0561-13.458-3.9246-19.844-6.2053-5.0244-1.7944-10.736-3.0438-15.204-6.0071-3.1382-2.0817-9.2316-2.8742-8.6085-8.1605-1.134-0.24183-1.6761-2.1672-1.3229-3.175-0.80645-0.6776-0.84297-1.9368-1.184-2.9104-0.74877-2.1394-2.3643-4.8212-1.991-7.1438-0.74189-0.41645-0.98081-1.3729 0-1.5875v-0.26458l-1.4753-3.4396-1.9643-8.7312h-0.26458v0.52916h-0.26458l-0.26459-3.7042h-0.26458l-0.26458 0.52916-0.79375-4.2333-0.52917-1.8521h0.26458l5.5562 2.5149 7.1438 3.2626 5.2917 1.6309 5.8208 1.5875-0.79375 0.26458v0.26459l8.4667 2.1167c0.66252 1.2287 3.9664 3.36 3.0774 0.48922-0.25083-0.81016-1.0144-1.179-1.4899-1.8121l-1.3229 1.0583h-0.26458l0.79375-1.3229v-0.26458l-3.4737-3.1083-2.8763 0.10187-7.9386-2.9594-7.6719-1.9516-8.2021-3.4597 0.26458-0.79375c-2.2675 0.19632-4.4876-3.732-2.2913-5.2126 0.54319-0.36618 1.6523-0.98716 2.3148-0.97578 0.70247 0.0122 1.5094 0.88079 2.14 0.24447 0.77153-0.7784 0.24077-2.0918-0.31141-2.7874v-3.175h0.26458v1.8521l1.0583-0.79375-0.26458 0.79375h1.0583l0.52917 1.8521c1.6544 0.19685 2.8083 2.4482 2.9104 3.9688h-0.26459l-0.26458-0.79375c-1.7965 0.74639-1.4758 2.6432 0.52917 2.1167v1.5875c2.5829 0.39608 2.6069-2.0997 0-1.8521v-0.26459l0.52916-1.8521 3.4396 2.3812 0.79375-0.26458c0.91307 1.3076 3.6536 4.549 5.2999 4.717 2.1876 0.22304-0.3691-2.757-1.0665-3.1295l0.26458-0.52917c-1.1636-0.24739-3.4668-2.0481-3.7042-3.175l-3.9688-3.9688 3.9688-1.5875 5.5562-1.0337 12.435-0.81835 6.6146 0.52916v-0.26458h-0.52917l8.2021-0.28813 11.354 1.5367 7.6965 4.8368m-25.4-6.0854v0.26458h2.9104l-2.9104-0.26458m7.4083 0v0.26458h1.0583l-1.0583-0.26458m6.6146 0.79375 0.26458 0.26458-0.26458-0.26458m8.9958 0v0.26458h0.79375l-0.79375-0.26458m-44.803 0.61727 0.17622 0.0884-0.17622-0.0884m37.394-0.0881v0.26458h0.79375l-0.79375-0.26458m1.5875 0v0.52916h0.52917l-0.52917-0.52916m-40.746 0.26458 0.26458 0.26458-0.26458-0.26458m-1.5875 0.52917v0.26458l1.8521 0.26458-1.8521-0.52916m2.3812 0v0.26458h1.5875l-1.5875-0.26458m39.07 0.0881 0.17621 0.0884-0.17621-0.0884m-1.764 0.17648 0.26458 0.26458-0.26458-0.26458m2.8223 0.0881 0.17621 0.0884-0.17621-0.0884m0.88185-0.0881 0.26459 0.26458-0.26459-0.26458m8.6432 0.35269 0.17621 0.0884-0.17621-0.0884m-0.52917 0.52916 0.17621 0.0884-0.17621-0.0884m-5.2036 0.44107 0.26458 0.26458-0.26458-0.26458m-56.356 0.52916-0.26458 1.5875h0.26458v-1.5875m55.827 0 0.26459 0.26459-0.26459-0.26459m1.2348 0.0881 0.17621 0.0884-0.17621-0.0884m-56.268 1.2348c-0.26987 0.76703-0.32491 1.1398 0.52917 1.3229v-0.26459l-0.52917-1.0583m57.415 0v0.52917h0.52917v-0.52917h-0.52917m-62.706 1.3229 0.26459 0.26458-0.26459-0.26458m4.1452 0.0881 0.17621 0.0884-0.17621-0.0884m-9.9661 0.17648 0.26458 0.26458-0.26458-0.26458m11.377 0 0.26459 0.26458-0.26459-0.26458m0.79375 0 0.26459 0.26458-0.26459-0.26458m64.294 0 0.26458 0.26458-0.26458-0.26458m0.52917 0 0.26458 0.26458-0.26458-0.26458m-72.672 0.70564 0.0884 0.17622-0.0884-0.17622m7.0556 0.0881 0.26459 0.26458-0.26459-0.26458m3.7923 0.17648 0.0884 0.17621-0.0884-0.17621m-11.377 0.26458 0.0884 0.17621-0.0884-0.17621m12.083-0.17648v0.26459h0.79375l-0.79375-0.26459m57.15 0.26459 0.26458 0.26458-0.26458-0.26458m-61.648 0.26458 0.26459 0.26458-0.26459-0.26458m-7.1438 0.26458 0.26459 0.26459-0.26459-0.26459m12.171 0 0.26458 0.26459-0.26458-0.26459m57.15 0 0.26459 0.26459-0.26459-0.26459m-62.089 0.70565 0.0884 0.17621-0.0884-0.17621m6.35 0 0.0884 0.17621-0.0884-0.17621m-5.3798 0.35269 0.26458 0.26458-0.26458-0.26458m6.0854 0 0.26459 0.26458-0.26459-0.26458m-7.1438 0.26458 1.8521 0.79375v-0.26458l-1.8521-0.52917m2.1167 0 0.26458 0.26458-0.26458-0.26458m61.648 0.52917 0.26459 0.26458-0.26459-0.26458m-58.473 0.26458 0.26458 0.26458-0.26458-0.26458m64.558 0.26458 0.26458 0.26459-0.26458-0.26459m-75.671 0.26459 0.26458 0.26458-0.26458-0.26458m0.88186 0.17647 0.0884 0.17622-0.0884-0.17622m69.85 0.52917 0.0884 0.17621-0.0884-0.17621m-53.799 1.1464-0.26458 0.52917 0.26458-0.52917m53.975 0 0.26458 0.26458-0.26458-0.26458m0.79375 0 0.26458 0.26458-0.26458-0.26458m-77.082 0.88186 0.17621 0.0884-0.17621-0.0884m23.371 0.17647v0.26459h0.79375l-0.79375-0.26459m55.827 0 0.26458 0.26459-0.26458-0.26459m-78.846 0.52917v1.0583h0.52916v-1.0583h-0.52916m21.696 0.52917 0.26458 0.26458-0.26458-0.26458m4.2333 0.26458c0.17251 1.0348 0.56515 1.2435 1.5875 1.3229v-1.3229h-1.5875m2.1167 0 0.26458 0.26458-0.26458-0.26458m51.594 0 0.26458 0.26458-0.26458-0.26458m0.35269 0.70564 0.0884 0.17622-0.0884-0.17622m-51.682 0.35269 0.26459 0.26459-0.26459-0.26459m-19.844 0.52917 0.26459 0.26458-0.26459-0.26458m20.638 2.6458c3.0427-2.8149-3.5883-3.1607 0 0m-29.369-2.3812 0.26459 0.26459-0.26459-0.26459m26.988 0 0.26459 0.26459-0.26459-0.26459m53.622 0.0881 0.17621 0.0884-0.17621-0.0884m-79.816 0.17648 0.26459 0.26458-0.26459-0.26458m4.2333 0v0.79375h0.26458l-0.26458-0.79375m82.55 0.26458 0.26459 0.26458-0.26459-0.26458m-76.112 0.70564 0.0884 0.17622-0.0884-0.17622m-0.52916 0.79375 0.0884 0.17622-0.0884-0.17622m15.61 0 0.0884 0.17622-0.0884-0.17622m-13.582 0.0881 0.26458 0.26458-0.26458-0.26458m17.462 0 0.26458 0.26458-0.26458-0.26458m53.71 0 0.26458 0.26458-0.26458-0.26458m-79.11 0.26458 0.26458 0.26459-0.26458-0.26459m22.754 0 0.26459 0.26459-0.26459-0.26459m-21.696 0.26459 0.26458 0.26458-0.26458-0.26458m23.812 0.26458v0.26458h0.79375l-0.79375-0.26458m2.6458 0 0.26459 0.26458-0.26459-0.26458m-15.61 0.52917v0.26458l0.79375 0.26458-0.79375-0.52916m-11.112 0.26458v1.3229h0.26458l-0.26458-1.3229m80.169 0.26458v0.52917h0.52917v-0.52917h-0.52917m-70.644 0.52917 0.26458 0.26458-0.26458-0.26458m4.2333 0 0.26458 0.26458-0.26458-0.26458m2.1167 0 0.26458 0.26458-0.26458-0.26458m71.173 0.26458 0.26458 0.26459-0.26458-0.26459m-90.752 0.52917 0.26458 0.26458-0.26458-0.26458m22.225 0 0.26458 0.26458-0.26458-0.26458m63.5 0.26458 0.26458 0.26459-0.26458-0.26459m-62.177 0.52917 0.26458 0.79375h0.26458v-1.0583l-0.52916 0.26458m-1.5875 0v0.26458l0.52916 0.52917h0.26459l0.52916-0.52917-1.3229-0.26458m64.294 0 0.52917 0.52917v-0.52917h-0.52917m-85.99 0.26458v1.3229h0.26459l-0.26459-1.3229m85.46 0.26459 0.26458 0.26458-0.26458-0.26458m-84.667 1.0583v1.3229h0.26459l-0.26459-1.3229m27.517 0v0.52917h0.52917v-0.52917h-0.52917m1.1464 0.44106 0.0884 0.17621-0.0884-0.17621m7.4083 0.26458 0.0884 0.17622-0.0884-0.17622m-36.865 0.0881 0.52917 0.79375-0.52917-0.79375m88.371 0 0.26459 0.26458-0.26459-0.26458m5.8208 0 0.26458 0.26458-0.26458-0.26458m-65.617 0.26458 0.26459 0.26459-0.26459-0.26459m1.5875 0 0.26459 0.26459-0.26459-0.26459m-0.79375 0.26459 0.26459 0.26458-0.26459-0.26458m58.473 0 0.26458 0.26458-0.26458-0.26458m-51.065 0.26458 0.26458 0.26458-0.26458-0.26458m-3.9688 0.52917 0.26458 0.26458-0.26458-0.26458m57.15 0.26458 0.26459 0.26458-0.26459-0.26458m-53.181 0.52917 0.26458 0.26458-0.26458-0.26458m53.975 0.26458 0.26459 0.26458-0.26459-0.26458m5.5562 0 0.26459 0.26458-0.26459-0.26458m-59.796 0.26458 0.26459 0.26459-0.26459-0.26459m53.446 0 0.26459 0.26459-0.26459-0.26459m-84.402 0.26459v0.79375h0.26459l-0.26459-0.79375m31.485 0 0.26458 0.26458-0.26458-0.26458m1.5875 0v0.26458l0.52917 0.26458-0.26459 1.5875c2.5172-0.63473 2.0397-1.6804-0.26458-2.1167m59.267 0.26458 0.26459 0.26458-0.26459-0.26458m-59.796 0.26458 0.26459 0.26459-0.26459-0.26459m-0.79375 0.26459v0.79375h0.26459l-0.26459-0.79375m55.474 0.35269 0.17622 0.0884-0.17622-0.0884m-86.607 0.35295 0.0884 0.17621-0.0884-0.17621m85.901-0.17648v0.52917h0.52917l-0.52917-0.52917m1.4994 0.35269 0.17622 0.0884-0.17622-0.0884m-52.564 0.17648 0.26458 0.26458-0.26458-0.26458m1.4073 0.27569c-1.8256 1.1644 1.4293 3.3605 2.7416 2.576 1.8058-1.0798-1.3377-3.4711-2.7416-2.576m58.389 0.25348 0.26458 0.26458-0.26458-0.26458m-5.7327 0.70564 0.0884 0.17621-0.0884-0.17621m-93.221 0.88186v0.79375h0.26458l-0.26458-0.79375m39.688 0 0.26458 0.26458-0.26458-0.26458m52.917 0 0.26458 0.26458-0.26458-0.26458m-47.096 0.52916c-1.5232 2.3019 2.1288 2.8657 1.5875 0.26459l-1.0583-0.26459h-0.52917m53.975 0v0.26459h0.79375l-0.79375-0.26459m-55.827 0.52917 0.52916 0.52917v-0.52917h-0.52916m57.415 0 0.26458 0.26458-0.26458-0.26458m-5.4682 0.70564 0.0884 0.17622-0.0884-0.17622m-53.799 0.0881 0.26459 0.26458-0.26459-0.26458m2.3812 0 0.26459 0.26458-0.26459-0.26458m-42.862 0.52917 0.26459 0.26458-0.26459-0.26458m41.187 0.0881 0.17621 0.0884-0.17621-0.0884m-36.424 0.17648v0.79375h0.26459l-0.26459-0.79375m42.598 0c-0.55668 2.4604 1.6936 3.1827 2.1167 0.52917l-2.1167-0.52917m53.71 0.26458 0.26459 0.26459-0.26459-0.26459m0.88186 0.97023 0.0884 0.17621-0.0884-0.17621m-6.4381 0.35269 0.26459 0.26458-0.26459-0.26458m-91.017 0.52917 0.52917 2.6458h0.26458l-0.79375-2.6458m44.979 0 2.1167 2.9104h0.26459l0.79375-0.26458-0.26459-2.3812v-0.26458h-2.9104m3.6161 0.0881 0.17621 0.0884-0.17621-0.0884m0.61727 0.17648v0.26458h1.0583l-1.0583-0.26458m-6.5265 0.44106 0.0884 0.17621-0.0884-0.17621m1.9405 0.17621 0.17621 0.0884-0.17621-0.0884m3.7923 0.17648v0.52917h0.52917v-0.52917h-0.52917m0.79375 0 0.79375 0.52917-0.79375-0.52917m44.715 0.26458 0.52917 0.79375-0.52917-0.79375m-41.804 3.175c-0.15346-4.726-5.6573-1.4557-1.5886-0.14816 0.51382 0.1651 1.0567 0.14208 1.5886 0.14816m-55.827-2.3812 0.26459 0.26459-0.26459-0.26459m97.102 0 0.26459 0.26459-0.26459-0.26459m-202.94 0.26459 0.26458 0.26458-0.26458-0.26458m162.72 0 0.26458 0.26458-0.26458-0.26458m-56.885 0.52916 0.26459 1.5875h0.52916l-0.79375-1.5875m56.092 0 0.52917 0.79375-0.52917-0.79375m-4.4979 0.26459 1.0583 1.0583-1.0583-1.0583m48.154 0.52916 0.26458 0.26459-0.26458-0.26459m-207.17 0.52917 1.3229 0.52917-1.3229-0.52917m108.48-0.26458 0.52916 0.52916v-0.52916h-0.52916m51.858 0 0.26458 0.26458-0.26458-0.26458m-1.6756 0.35269 0.17621 0.0884-0.17621-0.0884m-50.447 0.44106 0.79375 0.79375-0.79375-0.79375m-0.79375 0.52916v0.52917h0.52917l-0.52917-0.52917m0.70565 1.1464 0.17621 0.0884-0.17621-0.0884m101.86 0 0.17621 0.0884-0.17621-0.0884m-100.1 0.88212 0.0884 0.17622-0.0884-0.17622m101.25 0.0881 0.26458 0.26458-0.26458-0.26458m-97.367 0.26458 0.26459 0.26459-0.26459-0.26459m-3.7042 0.79375-0.26459 0.79375 0.26459-0.79375m65.617 0.79375 0.26458 0.26459-0.26458-0.26459m-2.1167 0.26459 0.26459 0.26458-0.26459-0.26458m-63.235 0.26458 0.26458 0.26458-0.26458-0.26458m64.029 0 0.26459 0.26458-0.26459-0.26458m2.9104 0 0.26458 0.26458-0.26458-0.26458m-0.79375 2.1167c1.3108-3.0369-3.4039-0.9189 0 0m36.777-1.8521 0.26459 0.26459-0.26459-0.26459m-35.719 0.52917 0.26459 0.26458-0.26459-0.26458m-3.2631 0.35269 0.17621 0.0884-0.17621-0.0884m38.982-0.0881 0.26459 0.26459-0.26459-0.26459m-39.688 0.26459 0.26459 0.26458-0.26459-0.26458m4.4979 0 0.26458 0.26458-0.26458-0.26458m-3.6161 0.44106 0.0884 0.17621-0.0884-0.17621m2.8223-0.17648 0.26458 0.26458-0.26458-0.26458m42.069 0 0.26458 0.26458-0.26458-0.26458m-104.51 0.26458v0.52917h0.52916v-0.52917h-0.52916m62.706 0.52917 2.3812 3.175 0.52917-0.52917h0.26458c1.0795 1.1983 2.6247 1.8103 4.2333 1.5875-0.47017-2.3114-5.2353-5.0982-7.4083-4.2333m-0.52916-0.26458 0.26458 0.26458-0.26458-0.26458m-1.5875 0.26458v0.52917h0.52916l-0.52916-0.52917m1.4994 0.88186 0.17621 0.0884-0.17621-0.0884m44.803 0.17647 0.26458 0.26459-0.26458-0.26459m-37.306 0.79375 0.26458 0.26459-0.26458-0.26459m-72.408 0.44106 0.0884 0.17622-0.0884-0.17622m66.41 0 0.0884 0.17622-0.0884-0.17622m0.70564-0.17647v1.0583h0.26459l-0.26459-1.0583m-0.79375 1.0583 0.26459 0.26458-0.26459-0.26458m37.571 0 0.26458 0.26458-0.26458-0.26458m6.0854 0.26458-0.26458 0.26459 0.26458-0.26459m1.8521 0.26459 0.26458 0.26458-0.26458-0.26458m-41.54 0.52916 0.52917 0.52917v-0.52917h-0.52917m36.248 0.26459 0.26458 0.26458-0.26458-0.26458m5.2044 0.0881 0.17463 0.0884-0.17463-0.0884m-110.77 0.17648 0.52917 0.79375-0.52917-0.79375m71.438 0 0.26458 0.26458-0.26458-0.26458m-72.143 0.44106 0.0884 0.17621-0.0884-0.17621m77.611 0.4408 0.17622 0.0884-0.17622-0.0884m-2.8223 1.2348 2.6458 0.26458c-0.66755-1.2711-1.8185-1.533-2.6458-0.26458m39.158-1.0583 0.26458 0.26459-0.26458-0.26459m-1.0583 0.26459 0.52917 0.79375v-0.79375h-0.52917m-5.2917 0.52916 0.26458 0.26459-0.26458-0.26459m-32.808 0.79375 0.26459 0.26459-0.26459-0.26459m3.9688 0 0.26459 0.26459-0.26459-0.26459m30.956 1.0583v0.52916h0.52917v-0.52916h-0.52917m-105.57 0.79375v0.52916h0.52916l-0.52916-0.52916m105.57 0.52916 0.26459 0.26459-0.26459-0.26459m6.0854 0.26459 0.26458 0.26458-0.26458-0.26458m-98.778 0.88185 0.17622 0.0884-0.17622-0.0884m-8.114 0.44106 0.26458 0.26459-0.26458-0.26459m-0.52917 0.52917 0.26458 0.26458-0.26458-0.26458m109.98 0.61727 0.17463 0.0884-0.17463-0.0884m-105.3 1.3229 0.17622 0.0884-0.17622-0.0884m14.993 0.61754 0.0884 0.17621-0.0884-0.17621m90.664 0.35269 0.26458 0.26458-0.26458-0.26458m-88.635 0.26458v0.52917h0.52917l-0.52917-0.52917m84.138 0 0.26458 0.26458-0.26458-0.26458m0.88106 0.44106 0.09 0.17621-0.09-0.17621m-96.131 0.0881v0.52916h0.52917v-0.52916h-0.52917m96.66 0.70564 0.09 0.17621-0.09-0.17621m0.70644 1.1464 0.26458 0.26458-0.26458-0.26458m0 1.3229 0.26458 0.26458-0.26458-0.26458m6.35 0 0.26458 0.26458-0.26458-0.26458m-0.79375 0.26458 0.52916 0.79375-0.52916-0.79375m-80.257 0.35269 0.17622 0.0884-0.17622-0.0884m75.494 0.17648 0.79375 0.52916-0.79375-0.52916m-88.9 0.79375 0.26458 0.26458-0.26458-0.26458m3.3515 0.0881 0.17621 0.0884-0.17621-0.0884m85.284 0.17648 0.26459 0.26458-0.26459-0.26458m1.8521 0-0.26459 1.0583 0.79375-1.0583h-0.52916m-83.873 1.5875 0.79375 0.79375-0.79375-0.79375m68.905 0.56541c-1.061 0.585-0.24606 2.2413 0.85989 1.5391 0.94986-0.60193 0.11642-2.0767-0.85989-1.5391m-48.533 0.22834-0.26458 0.52917h0.52916l-0.26458-0.52917m48.154 1.8521v0.52917h0.52917v-0.52917h-0.52917m5.0271 2.3812c2.794-1.5401-1.7859-3.3248 0 0m-48.683-1.8521v0.26458h1.3229l-1.3229-0.26458m2.6458 0 0.26458 0.26458-0.26458-0.26458m64.029 0 0.52917 1.5875h0.26458l-0.79375-1.5875m-63.5 0.52917v0.26458l1.3229 0.26458v-0.26458l-1.3229-0.26458m44.715 0.79375 0.26458 0.26458-0.26458-0.26458m-58.473 0.26458v0.26458h1.3229l-1.3229-0.26458m2.1167 0.26458 0.26458 0.26459-0.26458-0.26459m18.785 0.26459 0.26459 0.26458-0.26459-0.26458m4.2333 0 0.26458 0.26458-0.26458-0.26458m52.917 0 0.26459 0.26458-0.26459-0.26458m-70.115 0.79375 0.26458 0.26458-0.26458-0.26458m17.198 0 0.26458 0.26458-0.26458-0.26458m-19.579 0.26458 0.26459 0.26458-0.26459-0.26458m69.056 0 0.26458 0.26458-0.26458-0.26458m-64.558 0.26458 0.26458 0.26459-0.26458-0.26459m-2.5577 0.44106 0.0884 0.17622-0.0884-0.17622m3.6161-0.17647v0.52916h0.52917v-0.52916h-0.52917m54.062 0.70564 0.09 0.17621-0.09-0.17621m0.79375 0 0.09 0.17621-0.09-0.17621m2.1167 0 0.09 0.17621-0.09-0.17621m-1.4102 0.0881v2.1167c1.2435-0.50032 1.2435-1.6166 0-2.1167m-29.104 0.52916v0.26459h1.0583l-1.0583-0.26459m-18.609 0.35269 0.17621 0.0884-0.17621-0.0884m46.655-0.0881 0.26458 0.26458-0.26458-0.26458m-46.302 0.52916v0.26459h1.0583l-1.0583-0.26459m-2.1167 0.26459 0.26458 0.26458-0.26458-0.26458m0.52916 0 0.26459 0.26458-0.26459-0.26458m0.52917 0 0.26458 0.26458-0.26458-0.26458m6.2619 0.0881 0.17622 0.0884-0.17622-0.0884m41.45 0.0884 0.09 0.17622-0.09-0.17622m2.0294-0.17647 0.26458 0.26458-0.26458-0.26458m-49.036 0.35269 0.17621 0.0884-0.17621-0.0884m0.88185-0.0881v0.26458h1.0583l-1.0583-0.26458m3.4396 0 0.26459 0.26458-0.26459-0.26458m45.686 0.0881 0.17462 0.0884-0.17462-0.0884m1.1456 1.4994v0.26458l-0.52916 0.52917 2.3812-0.79375c-0.81227-2.0055-2.958-1.0216-1.8521 0m-42.598-1.0583 0.26458 0.26458-0.26458-0.26458m2.6458 0.52916 0.26458 0.26459-0.26458-0.26459m44.185 0 0.26458 0.26459-0.26458-0.26459m2.6458 0v0.79375h0.26458l-0.26458-0.79375m-4.3683 0.81174c-1.0716 0.73608 0.62442 2.7003 1.6484 2.0767 1.4129-0.8599-0.45773-2.8964-1.6484-2.0767m-39.817-0.018 0.26459 0.26459-0.26459-0.26459m1.0583 0.52917 0.79375-0.26458-0.79375 0.26458m37.571-0.52917 0.26458 0.26459-0.26458-0.26459m10.141 0.44106 0.09 0.17622-0.09-0.17622m-27.075 0.0881v0.26458h1.3229l-1.3229-0.26458m3.0877 0.0881 0.17463 0.0884-0.17463-0.0884m24.871 0 0.17462 0.0884-0.17462-0.0884m-41.717 1.4994 0.26459 0.26458-0.26459-0.26458m1.9402 0.17648 0.0884 0.17621-0.0884-0.17621m2.3812 0 0.0884 0.17621-0.0884-0.17621m29.81 0.0881 0.26459 0.26459-0.26459-0.26459m-0.52916 1.3229 0.26458 0.26458-0.26458-0.26458m0.52916 0.26458 0.26459 0.26459-0.26459-0.26459m1.3229 0 0.26458 0.26459-0.26458-0.26459m-18.521 0.79375 0.26458 0.26459-0.26458-0.26459m19.579 0-0.26458 0.26459 0.26458-0.26459m-16.491 0.61728 0.17463 0.0884-0.17463-0.0884m0.88107 0.44106v0.26458h1.0583l-1.0583-0.26458m1.5002 0.0881 0.17463 0.0884-0.17463-0.0884m-0.52916 0.79375 0.17462 0.0884-0.17462-0.0884m4.2333 0.26459 0.17463 0.0884-0.17463-0.0884m13.581 1.764 0.52917 0.52917v-0.52917z" fill="#0a0a0a"/>
 </g>
</svg>
